<svg width="115" height="76" viewBox="0 0 115 76" xmlns="http://www.w3.org/2000/svg" xmlns:xlink="http://www.w3.org/1999/xlink"><title>learning-time</title><desc>Created using Figma</desc><g transform="translate(584 2254)"><clipPath id="a" clip-rule="evenodd"><path d="M-584-2254h115v76h-115v-76z" fill="#fff"/></clipPath><g clip-path="url(#a)"><use xlink:href="#b" transform="translate(-562.81 -2217.78)" fill="url(#c)" id="Vector"/><use xlink:href="#d" transform="matrix(.707 -.707 .707 .707 -585.5 -2227.79)" fill="url(#e)" id="Vector"/><use xlink:href="#f" transform="matrix(.707 -.707 .707 .707 -582.525 -2231.14)" fill="url(#g)" id="Vector"/><use xlink:href="#h" transform="translate(-526.772 -2233.77)" fill="url(#i)"/></g></g><defs><linearGradient id="c" x2="1" gradientUnits="userSpaceOnUse" gradientTransform="matrix(-46.422 -36.683 71.434 -23.839 42.991 67.602)"><stop offset="0" stop-color="#9BAECF"/><stop offset="1" stop-color="#31437D"/></linearGradient><linearGradient id="e" x2="1" gradientUnits="userSpaceOnUse" gradientTransform="matrix(-62.521 63.354 -63.354 -62.521 116.659 29.072)"><stop offset="0" stop-color="#9BAECF"/><stop offset="1" stop-color="#243261"/></linearGradient><linearGradient id="g" x2="1" gradientUnits="userSpaceOnUse" gradientTransform="matrix(-39.553 38.356 -37.877 -40.053 72.788 44.593)"><stop offset="0" stop-color="#7ECCE2"/><stop offset="1" stop-color="#688CD0"/></linearGradient><linearGradient id="i" x2="1" gradientUnits="userSpaceOnUse" gradientTransform="matrix(-3.835 -41.258 32.267 -4.904 8.81 39.484)"><stop offset="0" stop-color="#F06A8C"/><stop offset="1" stop-color="#F6A38D"/></linearGradient><path id="b" d="M74 0v25.303c-37.713 27.33-74 2.398-74 0v-25.303h74z"/><path id="d" fill-rule="evenodd" d="M78.653 83.707l-54.253-24.179-24.4-54.5 5.017-5.028 77.983 79.373-4.347 4.334z"/><path id="f" d="M2.294.15l52.273 23.765c.363.165.654.46.817.827l23.468 52.934c.612 1.38-.784 2.793-2.146 2.174l-52.273-23.765c-.364-.166-.655-.46-.817-.827l-23.468-52.934c-.612-1.38.784-2.793 2.146-2.174z"/><path id="h" d="M1.405 4.785c-.593-.293-1.048-.808-1.265-1.433-.217-.625-.181-1.31.103-1.909.283-.598.79-1.061 1.411-1.289.621-.228 1.307-.203 1.91.07l23.956 11.351c.431.205.796.527 1.051.931.255.404.391.871.391 1.349v20.604c.007.335-.054.669-.177.98-.124.312-.308.596-.543.835-.235.239-.515.43-.824.56-.309.13-.641.197-.977.197-.335 0-.668-.067-.977-.197-.309-.13-.589-.32-.824-.56-.235-.239-.42-.523-.543-.835-.124-.312-.184-.645-.177-.98v-19.008l-22.514-10.667z"/></defs></svg>